<mxfile host="app.diagrams.net" modified="2024-03-14T11:57:13.773Z" agent="Mozilla/5.0 (Windows NT 10.0; Win64; x64) AppleWebKit/537.36 (KHTML, like Gecko) Chrome/122.0.0.0 Safari/537.36" version="24.0.6" etag="1NA0ukG8SGHF8IXdsFbt" type="github">
  <diagram name="페이지-1" id="Vyisbbxnkte1mgtu32TB">
    <mxGraphModel>
      <root>
        <mxCell id="0" />
        <mxCell id="1" parent="0" />
      </root>
    </mxGraphModel>
  </diagram>
</mxfile>
